<?xml version="1.0" encoding="utf-8"?><svg xmlns="http://www.w3.org/2000/svg" xmlns:xlink="http://www.w3.org/1999/xlink"><symbol viewBox="0 0 48 48" id="check" xmlns="http://www.w3.org/2000/svg"><path d="M18.9 35.7 7.7 24.5l2.15-2.15 9.05 9.05 19.2-19.2 2.15 2.15z"/></symbol><symbol viewBox="0 0 48 48" id="chevron-left" xmlns="http://www.w3.org/2000/svg"><path d="M28.05 36 16 23.95 28.05 11.9l2.15 2.15-9.9 9.9 9.9 9.9z"/></symbol><symbol viewBox="0 0 48 48" id="chevron-right" xmlns="http://www.w3.org/2000/svg"><path d="m18.75 36-2.15-2.15 9.9-9.9-9.9-9.9 2.15-2.15L30.8 23.95z"/></symbol><symbol viewBox="0 0 48 48" id="close" xmlns="http://www.w3.org/2000/svg"><path d="m12.45 37.65-2.1-2.1L21.9 24 10.35 12.45l2.1-2.1L24 21.9l11.55-11.55 2.1 2.1L26.1 24l11.55 11.55-2.1 2.1L24 26.1z"/></symbol></svg>