<?xml version="1.0" encoding="utf-8"?><svg xmlns="http://www.w3.org/2000/svg" xmlns:xlink="http://www.w3.org/1999/xlink"><symbol viewBox="0 0 48 48" id="check" xmlns="http://www.w3.org/2000/svg"><path d="M18.9 35.7 7.7 24.5l2.15-2.15 9.05 9.05 19.2-19.2 2.15 2.15z"/></symbol><symbol viewBox="0 0 448 512" id="chevron-down" xmlns="http://www.w3.org/2000/svg"><!--! Font Awesome Pro 6.0.0-alpha3 by @fontawesome - https://fontawesome.com License - https://fontawesome.com/license (Commercial License)--><path d="M4.251 181.1c3.141-3.4 7.439-6 11.749-6 3.891 0 7.781 1.406 10.86 4.25l197.1 181.1 197.1-181.1c6.5-6 16.64-5.625 22.61.906 6 6.5 5.594 16.59-.89 22.59l-208 192a15.956 15.956 0 0 1-21.72 0l-208-192C-1.344 197.7-1.75 187.6 4.25 181.1z"/></symbol><symbol viewBox="0 0 48 48" id="chevron-left" xmlns="http://www.w3.org/2000/svg"><path d="M28.05 36 16 23.95 28.05 11.9l2.15 2.15-9.9 9.9 9.9 9.9z"/></symbol><symbol viewBox="0 0 48 48" id="chevron-right" xmlns="http://www.w3.org/2000/svg"><path d="m18.75 36-2.15-2.15 9.9-9.9-9.9-9.9 2.15-2.15L30.8 23.95z"/></symbol><symbol viewBox="0 0 48 48" id="close" xmlns="http://www.w3.org/2000/svg"><path d="m12.45 37.65-2.1-2.1L21.9 24 10.35 12.45l2.1-2.1L24 21.9l11.55-11.55 2.1 2.1L26.1 24l11.55 11.55-2.1 2.1L24 26.1z"/></symbol></svg>