<svg width="26" height="17" viewBox="0 0 26 17" fill="none" xmlns="http://www.w3.org/2000/svg">
<path fill-rule="evenodd" clip-rule="evenodd" d="M15 10C18.9822 10 21.4569 8.35021 22.8556 5.55279C23.354 4.55603 23.6774 3.4779 23.8574 2.3981C23.9204 2.01998 23.9608 1.67006 23.983 1.35844C23.9959 1.1779 24 1 24 1C24 0.447715 24.4477 0 25 0C25.5523 0 26 0.392822 26 1C26 1.60718 25.9571 1.96528 25.8301 2.7269C25.6195 3.99085 25.2398 5.25647 24.6444 6.44721C22.9181 9.89979 19.7678 12 15 12H3.41421L6.70711 15.2929C7.09763 15.6834 7.09763 16.3166 6.70711 16.7071C6.31658 17.0976 5.68342 17.0976 5.29289 16.7071L0.292893 11.7071C-0.0976311 11.3166 -0.0976311 10.6834 0.292893 10.2929L5.29289 5.29289C5.68342 4.90237 6.31658 4.90237 6.70711 5.29289C7.09763 5.68342 7.09763 6.31658 6.70711 6.70711L3.41421 10H15Z" fill="#407AB1"/>
</svg>
