<svg width="26" height="17" viewBox="0 0 26 17" fill="none" xmlns="http://www.w3.org/2000/svg">
<path fill-rule="evenodd" clip-rule="evenodd" d="M11 10C7.01783 10 4.54314 8.35021 3.14443 5.55279C2.64605 4.55603 2.32261 3.4779 2.14264 2.3981C2.07962 2.01998 2.03925 1.67006 2.01699 1.35844C2.0041 1.1779 2 1 2 1C2 0.447715 1.55228 0 1 0C0.447716 0 0 0.392822 0 1C0 1.60718 0.0429211 1.96528 0.169857 2.7269C0.380514 3.99085 0.760202 5.25647 1.35557 6.44721C3.08186 9.89979 6.23217 12 11 12H22.5858L19.2929 15.2929C18.9024 15.6834 18.9024 16.3166 19.2929 16.7071C19.6834 17.0976 20.3166 17.0976 20.7071 16.7071L25.7071 11.7071C26.0976 11.3166 26.0976 10.6834 25.7071 10.2929L20.7071 5.29289C20.3166 4.90237 19.6834 4.90237 19.2929 5.29289C18.9024 5.68342 18.9024 6.31658 19.2929 6.70711L22.5858 10H11Z" fill="#407AB1"/>
</svg>
