<svg width="16" height="16" viewBox="0 0 16 16" fill="none" xmlns="http://www.w3.org/2000/svg">
<path d="M6.58459 7.99997L0.292713 1.70693C-0.0977116 1.3163 -0.0975505 0.683138 0.293073 0.292713C0.683697 -0.0977116 1.31686 -0.0975505 1.70729 0.293073L7.99844 6.5854L14.2896 0.293073C14.68 -0.0975505 15.3132 -0.0977116 15.7038 0.292713C16.0944 0.683138 16.0946 1.3163 15.7042 1.70693L9.4123 7.99997L15.7042 14.293C16.0946 14.6836 16.0944 15.3168 15.7038 15.7072C15.3132 16.0977 14.68 16.0975 14.2896 15.7069L7.99844 9.41454L1.70729 15.7069C1.31686 16.0975 0.683697 16.0977 0.293073 15.7072C-0.0975505 15.3168 -0.0977116 14.6836 0.292713 14.293L6.58459 7.99997Z" fill="#ffffff"/>
</svg>
