<?xml version="1.0" encoding="utf-8"?><svg xmlns="http://www.w3.org/2000/svg" xmlns:xlink="http://www.w3.org/1999/xlink"><symbol viewBox="0 0 26 17" id="arrow-left" xmlns="http://www.w3.org/2000/svg"><path fill-rule="evenodd" clip-rule="evenodd" d="M15 10c3.982 0 6.457-1.65 7.856-4.447.498-.997.821-2.075 1.001-3.155.063-.378.104-.728.126-1.04C23.996 1.178 24 1 24 1a1 1 0 011-1c.552 0 1 .393 1 1s-.043.965-.17 1.727c-.21 1.264-.59 2.53-1.186 3.72C22.918 9.9 19.768 12 15 12H3.414l3.293 3.293a1 1 0 11-1.414 1.414l-5-5a1 1 0 010-1.414l5-5a1 1 0 011.414 1.414L3.414 10H15z"/></symbol><symbol viewBox="0 0 26 17" id="arrow-right" xmlns="http://www.w3.org/2000/svg"><path fill-rule="evenodd" clip-rule="evenodd" d="M11 10c-3.982 0-6.457-1.65-7.856-4.447a11.175 11.175 0 01-1.001-3.155 11.23 11.23 0 01-.126-1.04A8.5 8.5 0 012 1a1 1 0 00-1-1C.448 0 0 .393 0 1s.043.965.17 1.727c.21 1.264.59 2.53 1.186 3.72C3.082 9.9 6.232 12 11 12h11.586l-3.293 3.293a1 1 0 001.414 1.414l5-5a1 1 0 000-1.414l-5-5a1 1 0 10-1.414 1.414L22.586 10H11z"/></symbol><symbol viewBox="0 0 12 9" id="check" xmlns="http://www.w3.org/2000/svg"><path d="M10.293.293a1 1 0 111.414 1.414l-7 7a1 1 0 01-1.414 0l-3-3a1 1 0 011.414-1.414L4 6.586 10.293.293z"/></symbol><symbol viewBox="0 0 16 16" id="close" xmlns="http://www.w3.org/2000/svg"><path d="M6.585 8L.293 1.707A1 1 0 011.707.293l6.291 6.292L14.29.293a1 1 0 011.414 1.414L9.412 8l6.292 6.293a1 1 0 01-1.414 1.414L7.998 9.415l-6.29 6.292a1 1 0 11-1.415-1.414L6.585 8z"/></symbol></svg>